<?xml version="1.0" encoding="UTF-8"?>
<svg version="1.1" xmlns="http://www.w3.org/2000/svg" width="400" height="400">
<path d="M0 0 C132 0 264 0 400 0 C400 132 400 264 400 400 C268 400 136 400 0 400 C0 268 0 136 0 0 Z " fill="#3156FF" transform="translate(0,0)"/>
<path d="M0 0 C10.64564761 1.54925128 20.91947118 4.58053799 31.26953125 7.43359375 C33.28399686 7.98513204 35.29858209 8.53623362 37.3132782 9.08692932 C41.59370272 10.25784193 45.87333588 11.431587 50.15234375 12.60766602 C56.84380752 14.44677444 63.53695763 16.27968709 70.23046875 18.11132812 C76.9905221 19.96140668 83.75051039 21.81171819 90.50991821 23.66415405 C109.75810304 28.938737 129.01597271 34.17713228 148.27880478 39.39793777 C152.59593384 40.56810972 156.91286235 41.73902125 161.22982311 42.90981388 C164.35625139 43.7577021 167.48272584 44.60541913 170.60929871 45.45277405 C177.40793525 47.29551196 184.20487577 49.1443512 191 51 C190.43215983 57.21469649 189.40205018 62.98007244 187.75708008 68.99194336 C187.52850406 69.84822421 187.29992804 70.70450506 187.06442547 71.58673382 C186.30568594 74.42281508 185.53763168 77.25628472 184.76953125 80.08984375 C184.224562 82.11942338 183.6801832 84.14916162 183.13635254 86.17904663 C181.67259907 91.63623289 180.20085727 97.09123541 178.72763443 102.54587173 C177.19865983 108.21248562 175.67715639 113.88110427 174.1550293 119.54956055 C171.66562242 128.81691011 169.17215297 138.08315709 166.67578125 147.34863281 C163.211849 160.20643988 159.75988554 173.06743531 156.3125 185.9296875 C155.79270241 187.86888209 155.27290163 189.80807583 154.75309753 191.74726868 C153.99978133 194.55763411 153.24647167 197.36800129 152.49320507 200.17838001 C149.95239397 209.65735077 147.40820198 219.13541314 144.86328125 228.61328125 C144.661689 229.3640733 144.46009674 230.11486534 144.25239563 230.88840866 C143.16836139 234.925632 142.08423238 238.96282987 141 243 C137.58135237 244.15609117 135.42743232 243.82905392 131.97680664 242.87719727 C130.94893036 242.59880508 129.92105408 242.3204129 128.86203003 242.03358459 C127.72291168 241.71441574 126.58379333 241.39524689 125.41015625 241.06640625 C124.17886993 240.73003647 122.94758362 240.39366669 121.6789856 240.04710388 C118.20720812 239.09846098 114.73888881 238.13768251 111.27105331 237.17474365 C107.5375833 236.13977053 103.80155 235.11413792 100.06567383 234.08789062 C95.02069299 232.70163563 89.9759873 231.31441295 84.93235779 229.92324829 C70.75988683 226.0169378 56.57083242 222.17312793 42.37778407 218.34239024 C33.67103208 215.9919683 24.96690148 213.63186523 16.26293468 211.27115345 C9.54199495 209.44863211 2.81993219 207.63045866 -3.90475464 205.82180786 C-10.32422564 204.09517011 -16.74004126 202.35540894 -23.15365982 200.60713387 C-25.55396723 199.95516843 -27.95549273 199.30767025 -30.35824203 198.6647625 C-33.66114483 197.78031995 -36.95945972 196.88046786 -40.25708008 195.9765625 C-41.23768874 195.7179371 -42.21829741 195.4593117 -43.22862148 195.19284916 C-44.55541471 194.82402701 -44.55541471 194.82402701 -45.90901184 194.44775391 C-46.67997098 194.23921783 -47.45093012 194.03068176 -48.24525166 193.81582642 C-48.82431861 193.5466037 -49.40338556 193.27738098 -50 193 C-51.3926904 188.82192879 -50.07222101 185.59968228 -48.95239258 181.48632812 C-48.72093001 180.61005044 -48.48946745 179.73377275 -48.25099087 178.8309412 C-47.47345518 175.89553454 -46.68397737 172.96347398 -45.89453125 170.03125 C-45.34121182 167.9519299 -44.78863507 165.87241204 -44.23675537 163.79270935 C-42.74732708 158.1883307 -41.24763699 152.58674493 -39.74596024 146.98563766 C-38.19264543 141.18539854 -36.64837575 135.38275286 -35.10327148 129.58032227 C-32.60556651 120.20476318 -30.10247411 110.83065841 -27.59570312 101.45751953 C-24.5859107 90.20216725 -21.59036407 78.94309018 -18.60314369 67.68172836 C-16.80221327 60.89363828 -14.99838136 54.10631837 -13.19500351 47.31887817 C-12.56625176 44.95162538 -11.93806486 42.58422325 -11.30996704 40.21679688 C-10.32892972 36.52004425 -9.34523112 32.82400926 -8.35953522 29.12849617 C-7.84230654 27.18706134 -7.32755153 25.24496799 -6.81292725 23.30284119 C-4.72179063 15.47576927 -2.43732516 7.72623693 0 0 Z " fill="#FCFCFD" transform="translate(130,78)"/>
<path d="M0 0 C6.17960096 0.6941264 11.98692151 2.25881928 17.96484375 3.94140625 C18.99815323 4.22853989 20.03146271 4.51567352 21.09608459 4.81150818 C24.37771392 5.72440928 27.65761276 6.64336182 30.9375 7.5625 C33.16981016 8.18464577 35.4022309 8.80639491 37.63476562 9.42773438 C43.09113257 10.94723257 48.54609361 12.47169518 54 14 C52.71722989 20.76944602 51.19130799 27.43274127 49.43359375 34.09375 C49.19463882 35.00709106 48.9556839 35.92043213 48.70948792 36.8614502 C48.20917592 38.7709571 47.70744719 40.68009334 47.2043457 42.58886719 C46.43244997 45.51917112 45.66612139 48.45089223 44.90039062 51.3828125 C44.41178554 53.24487756 43.92286475 55.10685981 43.43359375 56.96875 C43.08982948 58.28425842 43.08982948 58.28425842 42.73912048 59.62634277 C42.41857445 60.83900818 42.41857445 60.83900818 42.09155273 62.07617188 C41.90439194 62.78769409 41.71723114 63.49921631 41.5243988 64.2322998 C41 66 41 66 40 68 C33.03530495 66.70150547 26.22473846 65.06953801 19.3984375 63.1796875 C18.435961 62.91616486 17.4734845 62.65264221 16.48184204 62.38113403 C13.44533632 61.54896554 10.4101581 60.71206872 7.375 59.875 C5.30086763 59.3056748 3.22664963 58.73666147 1.15234375 58.16796875 C-3.89943221 56.78224659 -8.9501306 55.39265306 -14 54 C-12.48951554 48.07726051 -10.97783244 42.15482866 -9.46508789 36.23266602 C-8.9517458 34.22233136 -8.43871857 32.21191627 -7.92602539 30.20141602 C-7.18460634 27.2942159 -6.44201605 24.38731698 -5.69921875 21.48046875 C-5.47409103 20.59667038 -5.24896332 19.71287201 -5.01701355 18.80229187 C-3.40920204 12.51680905 -1.72303313 6.25484116 0 0 Z " fill="#3257FF" transform="translate(180,166)"/>
<path d="M0 0 C14 0 14 0 16.1875 2 C19.17561932 4.12488485 19.68967299 4.22008381 23.125 4.0625 C27 4 27 4 28.8125 5.375 C29.204375 5.91125 29.59625 6.4475 30 7 C30.99 7.66 31.98 8.32 33 9 C25.73182094 8.36759717 18.99346756 6.46023833 12 4.4375 C10.84371094 4.10814453 9.68742187 3.77878906 8.49609375 3.43945312 C5.66252006 2.63153335 2.83060143 1.81826057 0 1 C0 0.67 0 0.34 0 0 Z " fill="#BCC8FE" transform="translate(102,276)"/>
<path d="M0 0 C1.32 0.66 2.64 1.32 4 2 C3.34 2 2.68 2 2 2 C2 2.99 2 3.98 2 5 C2.5775 5.103125 3.155 5.20625 3.75 5.3125 C6.32049158 6.09792798 7.93657284 7.30504197 10 9 C2.36945905 8.38955672 -4.70189474 6.20378179 -12 4 C-9.63388179 3.34693128 -7.91672209 3.00406234 -5.4375 3.125 C-2.92178333 3.23927016 -2.92178333 3.23927016 -1.1875 1.5 C-0.795625 1.005 -0.40375 0.51 0 0 Z " fill="#CFD7FB" transform="translate(169,288)"/>
<path d="M0 0 C2.12438339 -0.08078641 4.2496323 -0.13909141 6.375 -0.1875 C7.55835938 -0.22230469 8.74171875 -0.25710938 9.9609375 -0.29296875 C11.46527344 -0.14794922 11.46527344 -0.14794922 13 0 C13.66 0.99 14.32 1.98 15 3 C16.90712541 3.86566741 16.90712541 3.86566741 19.1328125 4.38671875 C19.93847656 4.60263672 20.74414062 4.81855469 21.57421875 5.04101562 C22.41597656 5.25435547 23.25773437 5.46769531 24.125 5.6875 C24.97449219 5.91244141 25.82398438 6.13738281 26.69921875 6.36914062 C28.7968029 6.92299712 30.89807763 7.46284206 33 8 C29.07675806 9.49881429 26.21116424 8.47248103 22.265625 7.34765625 C21.62759949 7.16867294 20.98957397 6.98968964 20.33221436 6.80528259 C18.30208627 6.2335064 16.27614102 5.64823021 14.25 5.0625 C12.87134795 4.67162835 11.49244397 4.28164409 10.11328125 3.89257812 C6.73920728 2.93865159 3.36875002 1.97258256 0 1 C0 0.67 0 0.34 0 0 Z " fill="#B7C4FE" transform="translate(194,301)"/>
<path d="M0 0 C1.19784792 3.48335596 0.78454679 5.69506025 -0.21484375 9.203125 C-0.48876953 10.1828125 -0.76269531 11.1625 -1.04492188 12.171875 C-1.33947266 13.18765625 -1.63402344 14.2034375 -1.9375 15.25 C-2.22818359 16.28125 -2.51886719 17.3125 -2.81835938 18.375 C-3.53688154 20.9192752 -4.26436844 23.46062901 -5 26 C-5.72812196 23.23579999 -6.11282242 20.86278674 -6.0625 18 C-6.05347656 17.34 -6.04445313 16.68 -6.03515625 16 C-6.02355469 15.34 -6.01195312 14.68 -6 14 C-6 12.68 -6 11.36 -6 10 C-4.02 10.495 -4.02 10.495 -2 11 C-1.7834375 9.1128125 -1.7834375 9.1128125 -1.5625 7.1875 C-1.26251314 4.57332877 -0.84186703 2.52560108 0 0 Z " fill="#C0CAFC" transform="translate(280,280)"/>
<path d="M0 0 C14 0 14 0 16.1875 2 C17.0846875 2.99 17.0846875 2.99 18 4 C15.5610236 3.71800273 13.12429067 3.42484385 10.6875 3.125 C9.99720703 3.04636719 9.30691406 2.96773438 8.59570312 2.88671875 C5.04360529 2.44056153 3.0302971 2.02019807 0 0 Z " fill="#D1D7FC" transform="translate(102,276)"/>
<path d="M0 0 C0.66 0.33 1.32 0.66 2 1 C1.79375 1.61875 1.5875 2.2375 1.375 2.875 C1.25125 3.57625 1.1275 4.2775 1 5 C3.6855594 7.6855594 6.37621328 8.06049974 10 9 C6.69564916 10.12377697 4.9493138 9.89554742 1.75 8.5625 C1.04359375 8.27503906 0.3371875 7.98757813 -0.390625 7.69140625 C-0.92171875 7.46324219 -1.4528125 7.23507812 -2 7 C-1.34 4.69 -0.68 2.38 0 0 Z " fill="#D9E0FF" transform="translate(81,263)"/>
<path d="M0 0 C1.16835309 3.50505927 0.75193262 4.66433282 -0.3125 8.125 C-0.57675781 9.01445312 -0.84101562 9.90390625 -1.11328125 10.8203125 C-2 13 -2 13 -4 14 C-2.86792453 2.86792453 -2.86792453 2.86792453 0 0 Z " fill="#F2F3FF" transform="translate(86,247)"/>
<path d="M0 0 C0.33 0 0.66 0 1 0 C1 2.64 1 5.28 1 8 C-0.32 7.67 -1.64 7.34 -3 7 C-2.25 2.25 -2.25 2.25 0 0 Z " fill="#3E5CFF" transform="translate(303,216)"/>
<path d="M0 0 C0.66 0 1.32 0 2 0 C1.67 2.31 1.34 4.62 1 7 C-0.65 6.67 -2.3 6.34 -4 6 C-4 5.01 -4 4.02 -4 3 C-3.01 3.33 -2.02 3.66 -1 4 C-0.67 2.68 -0.34 1.36 0 0 Z " fill="#F1F0FA" transform="translate(277,284)"/>
<path d="M0 0 C0.66 0 1.32 0 2 0 C2 1.32 2 2.64 2 4 C1.01 4.33 0.02 4.66 -1 5 C-1 5.33 -1 5.66 -1 6 C-2.65 6 -4.3 6 -6 6 C-5.01 5.67 -4.02 5.34 -3 5 C-1.8499169 3.03327085 -1.8499169 3.03327085 -1 1 C-0.67 0.67 -0.34 0.34 0 0 Z " fill="#3A5EFF" transform="translate(94,204)"/>
<path d="M0 0 C0.93065133 2.60582371 1.14917407 3.64198224 0.0625 6.25 C-0.4634375 7.11625 -0.4634375 7.11625 -1 8 C-1.66 8 -2.32 8 -3 8 C-2.45276317 4.62537285 -1.9451 2.91765 0 0 Z " fill="#3C5FFF" transform="translate(221,224)"/>
<path d="M0 0 C0.66 0.33 1.32 0.66 2 1 C2 5 2 5 1 7 C-0.32 6.34 -1.64 5.68 -3 5 C-2.01 3.35 -1.02 1.7 0 0 Z " fill="#3A5EFF" transform="translate(283,113)"/>
</svg>
